<svg width="66" height="66" viewBox="0 0 66 66" fill="none" xmlns="http://www.w3.org/2000/svg">
<path d="M65.2143 0.917279C64.6274 0.333305 63.7902 0 62.9129 0H3.08912C2.21181 0 1.37466 0.333305 0.787729 0.917279C0.200797 1.50125 -0.0772232 2.2808 0.0185393 3.0576L6.82077 57.6619C6.95669 58.772 7.83709 59.7003 9.04184 60.006L32.1484 65.8926C32.4264 65.9642 32.7137 66 32.9979 66C33.2821 66 33.5694 65.9642 33.8474 65.8926L56.954 60.006C58.1588 59.7003 59.0361 58.772 59.1751 57.6619L65.9804 3.0576C66.0793 2.2808 65.8012 1.50125 65.2143 0.917279ZM50.0406 27.7498L48.6628 47.8169L33.0999 52.3538L17.5369 47.8169L16.9469 38.22H24.8241L25.0218 42.5832L33.0999 45.0265L41.1779 42.5832L41.7679 34.7326H24.4318L24.0395 27.7525H42.1633L42.7533 20.7724H15.5661L14.976 13.7895H51.026L50.0406 27.7498Z" fill="#3483CB"/>
</svg>
