<svg width="66" height="66" viewBox="0 0 66 66" fill="none" xmlns="http://www.w3.org/2000/svg">
<path d="M65.2143 0.917279C64.6274 0.333305 63.7902 0 62.9129 0H3.08912C2.21181 0 1.37466 0.333305 0.787729 0.917279C0.200797 1.50125 -0.0772232 2.2808 0.0185393 3.0576L6.82077 57.6619C6.95669 58.772 7.83709 59.7003 9.04184 60.006L32.1484 65.8926C32.4264 65.9642 32.7137 66 32.9979 66C33.2821 66 33.5694 65.9642 33.8474 65.8926L56.954 60.006C58.1588 59.7003 59.0361 58.772 59.1751 57.6619L65.9804 3.0576C66.0793 2.2808 65.8012 1.50125 65.2143 0.917279ZM50.3896 20.4666H22.8038L23.4587 27.4688H49.7255L47.7546 48.1558L33.0103 52.3372L32.8651 52.2959L18.2845 48.1502L17.4875 39.7212H24.6295L24.9415 42.9964L33.0875 44.5968L41.0914 42.9937L41.9409 34.1432H16.95L15.0162 13.773H51.0322L50.3896 20.4666Z" fill="#FFA500"/>
</svg>
